<svg xmlns="http://www.w3.org/2000/svg" width="350" height="80.161" viewBox="0 0 350 80.161">
  <g id="Group_1" data-name="Group 1" transform="translate(-702 -1130)">
    <rect id="Rectangle_1" data-name="Rectangle 1" width="350" height="80" transform="translate(702 1130)" fill="none"/>
    <g id="Sarasavi_Logo_Colour-01_1_" data-name="Sarasavi Logo Colour-01 (1)" transform="translate(636.33 889.24)">
      <path id="Path_1" data-name="Path 1" d="M105.751,242.76A38.081,38.081,0,1,1,67.67,280.841a38.081,38.081,0,0,1,38.081-38.081Z" transform="translate(0 0)" fill="#fff" stroke="#034ea2" stroke-miterlimit="2.61" stroke-width="4" fill-rule="evenodd"/>
      <path id="Path_2" data-name="Path 2" d="M145.3,323.835h17.942V329.2c0,2.951-1.961,5.362-4.357,5.362H145.3Zm17.942-7.972H145.3V310.5c0-2.951,1.961-5.362,4.357-5.362h13.585Z" transform="translate(-48.522 -38.99)" fill="none" stroke="#034ea2" stroke-miterlimit="2.61" stroke-width="4"/>
      <path id="Path_3" data-name="Path 3" d="M122.143,273.554c1.582,0,4.526-7.3,11.624-4.125s3.63,9.678,4.931,10.979,8-2.152,10.979,4.931-4.125,10.023-4.125,11.624,7.09,4.526,4.125,11.624S140,312.213,138.7,313.514s2.561,7.593-4.931,10.979-9.816-4.125-11.624-4.125-4.732,6.884-11.624,4.125-4.211-9.9-4.916-11-8,2.152-10.979-4.927,4.125-10.023,4.125-11.624-6.884-4.938-4.125-11.624,10.086-4.038,10.979-4.931-1.744-7.8,4.931-10.979,10.023,4.125,11.624,4.125Zm10.874,22.8h-23.96v-8.706h0a9.524,9.524,0,0,1,2.044-5.981,6.993,6.993,0,0,1,5.433-2.718h18.684v17.413Zm-21.762,1.271h23.971v8.707h0a9.505,9.505,0,0,1-2.044,5.977,6.982,6.982,0,0,1-5.433,2.718H109.057v-17.4Z" transform="translate(-16.392 -16.156)" fill="#034ea2" fill-rule="evenodd"/>
      <path id="Path_4" data-name="Path 4" d="M112.264,253.19A34.17,34.17,0,1,1,78.09,287.361a34.169,34.169,0,0,1,34.174-34.171Z" transform="translate(-6.513 -6.519)" fill="none" stroke="#034ea2" stroke-miterlimit="2.61" stroke-width="4"/>
      <path id="Path_5" data-name="Path 5" d="M295.962,301.756h9.074a2.18,2.18,0,0,0,1.7,1.924,21.138,21.138,0,0,0,5.752.517,26.012,26.012,0,0,0,5.887-.435q1.567-.435,1.56-1.6c0-.75-.5-1.26-1.5-1.522-.454-.116-3-.2-7.589-.247-4.3,0-6.944-.071-7.945-.2-2.786-.345-4.676-1.189-5.658-2.508a6.487,6.487,0,0,1-1.106-4.034q0-4.841,3.885-6.311,2.925-1.125,12.569-1.125a65.627,65.627,0,0,1,8.834.42,9.165,9.165,0,0,1,4.271,1.6,3.986,3.986,0,0,1,1.342,1.74,11.393,11.393,0,0,1,.581,3h-9.074a1.875,1.875,0,0,0-.615-1.042q-1.125-.634-5.624-.634a29.184,29.184,0,0,0-5.726.375c-1.035.244-1.552.727-1.552,1.4,0,.9.716,1.383,2.141,1.477q1.676.112,12.149.176c3.341,0,5.759.54,7.255,1.56s2.25,2.775,2.25,5.276a8.175,8.175,0,0,1-.881,4.042,5.433,5.433,0,0,1-2.778,2.317q-3.15,1.331-13.333,1.339a64.972,64.972,0,0,1-9.344-.465,9.216,9.216,0,0,1-4.458-1.822,6.649,6.649,0,0,1-2.088-5.249Zm46.956-8.084h-8.871a7.031,7.031,0,0,1,1.177-3.87,8.149,8.149,0,0,1,4.961-2.85,59.95,59.95,0,0,1,11.35-.75,50.968,50.968,0,0,1,8.017.409A7.283,7.283,0,0,1,363.2,288.4a5.512,5.512,0,0,1,1.612,2.625,17.8,17.8,0,0,1,.427,4.5v13.195h-8.564v-3h-.42a5.778,5.778,0,0,1-3.12,2.756,11.21,11.21,0,0,1-3.176.626c-1.357.116-3.525.172-6.491.172a28.052,28.052,0,0,1-5.538-.42,6.921,6.921,0,0,1-3.123-1.436c-1.151-1.012-1.721-2.666-1.721-4.961q0-3.825,2.04-5.523a8.669,8.669,0,0,1,4.282-1.736,77.807,77.807,0,0,1,9.79-.412,19.9,19.9,0,0,1,4.391.334,4.822,4.822,0,0,1,2.347,1.391h.4v-1.151c0-1.725-.345-2.8-1.035-3.24s-2.385-.652-5.088-.652a29.479,29.479,0,0,0-5.936.338,2.015,2.015,0,0,0-1.35,1.852Zm5.951,5.8c-3,0-4.874.161-5.583.495a1.908,1.908,0,0,0-1.3,1.785,1.788,1.788,0,0,0,1.279,1.815,16.481,16.481,0,0,0,4.874.472,25.2,25.2,0,0,0,6.348-.521,1.99,1.99,0,0,0,1.669-1.969,1.839,1.839,0,0,0-1.451-1.807,37.962,37.962,0,0,0-5.827-.27Zm21.916-12.677h8.388V290.1h.442a7.034,7.034,0,0,1,3.375-3,15.74,15.74,0,0,1,5.868-.881q5.377,0,7.5,1.95t2.115,6.907c0,.191,0,.679-.041,1.466h-8.41a5.908,5.908,0,0,0-.435-2.7q-.874-1.444-4.256-1.444c-2.115,0-3.618.525-4.5,1.582a4.2,4.2,0,0,0-.9,1.954,20.163,20.163,0,0,0-.236,3.678v9.1h-8.905V286.791Zm40.8,6.88h-8.871a6.988,6.988,0,0,1,1.177-3.87,8.149,8.149,0,0,1,4.961-2.85,59.95,59.95,0,0,1,11.35-.75,50.967,50.967,0,0,1,8.017.409,7.3,7.3,0,0,1,3.645,1.785,5.538,5.538,0,0,1,1.612,2.625,17.806,17.806,0,0,1,.427,4.5v13.195h-8.564v-3h-.42a5.771,5.771,0,0,1-3.123,2.756,11.149,11.149,0,0,1-3.172.626q-2.044.176-6.491.172a28.052,28.052,0,0,1-5.538-.42,6.922,6.922,0,0,1-3.123-1.436c-1.151-1.012-1.721-2.666-1.721-4.961q0-3.825,2.04-5.523a8.669,8.669,0,0,1,4.282-1.717,77.763,77.763,0,0,1,9.786-.412,20.035,20.035,0,0,1,4.391.334,4.834,4.834,0,0,1,2.351,1.391h.375v-1.151c0-1.725-.341-2.8-1.031-3.24s-2.385-.652-5.088-.652a29.516,29.516,0,0,0-5.936.337,2.015,2.015,0,0,0-1.35,1.852Zm5.951,5.8c-3,0-4.874.161-5.583.495a1.908,1.908,0,0,0-1.3,1.785,1.789,1.789,0,0,0,1.279,1.815,16.482,16.482,0,0,0,4.875.472,25.2,25.2,0,0,0,6.348-.521,1.994,1.994,0,0,0,1.672-1.969,1.843,1.843,0,0,0-1.455-1.807,38,38,0,0,0-5.827-.27Zm21.151,2.287h9.074a2.188,2.188,0,0,0,1.706,1.924,21.063,21.063,0,0,0,5.752.517,25.957,25.957,0,0,0,5.883-.435c1.042-.285,1.56-.817,1.56-1.6s-.5-1.26-1.5-1.522c-.454-.116-3-.2-7.589-.247-4.3,0-6.944-.071-7.945-.2-2.786-.345-4.676-1.189-5.658-2.508a6.57,6.57,0,0,1-1.125-4.034q0-4.841,3.888-6.311,2.921-1.125,12.565-1.125a65.627,65.627,0,0,1,8.834.42,9.264,9.264,0,0,1,4.308,1.609,4.024,4.024,0,0,1,1.346,1.74,11.427,11.427,0,0,1,.577,3h-9.074a1.875,1.875,0,0,0-.615-1.042q-1.125-.634-5.624-.634a29.141,29.141,0,0,0-5.726.375c-1.031.244-1.552.727-1.552,1.4,0,.9.712,1.384,2.137,1.477q1.676.112,12.149.176c3.341,0,5.759.54,7.255,1.56s2.25,2.775,2.25,5.276a8.134,8.134,0,0,1-.881,4.042,5.418,5.418,0,0,1-2.778,2.317q-3.15,1.331-13.333,1.339a64.96,64.96,0,0,1-9.344-.465,9.216,9.216,0,0,1-4.458-1.822,6.649,6.649,0,0,1-2.088-5.249Zm46.956-8.084h-8.872a7.07,7.07,0,0,1,1.177-3.87,8.149,8.149,0,0,1,4.961-2.85,59.951,59.951,0,0,1,11.35-.75,51.046,51.046,0,0,1,8.02.409,7.286,7.286,0,0,1,3.656,1.781,5.512,5.512,0,0,1,1.612,2.625,17.811,17.811,0,0,1,.427,4.5v13.195H499.4v-3h-.42a5.8,5.8,0,0,1-3.123,2.756,11.209,11.209,0,0,1-3.172.626c-1.361.116-3.528.172-6.49.172a28.067,28.067,0,0,1-5.542-.42,6.922,6.922,0,0,1-3.123-1.436c-1.151-1.012-1.721-2.666-1.721-4.961q0-3.825,2.04-5.523a8.684,8.684,0,0,1,4.282-1.736,77.93,77.93,0,0,1,9.79-.412,19.9,19.9,0,0,1,4.391.334,4.849,4.849,0,0,1,2.351,1.391h.375v-1.151c0-1.725-.345-2.8-1.035-3.24s-2.385-.652-5.084-.652a29.462,29.462,0,0,0-5.936.337,2.013,2.013,0,0,0-1.354,1.852Zm5.954,5.8c-3,0-4.874.161-5.583.495a1.9,1.9,0,0,0-1.3,1.785,1.792,1.792,0,0,0,1.275,1.815,16.458,16.458,0,0,0,4.874.472,25.2,25.2,0,0,0,6.344-.521,1.994,1.994,0,0,0,1.672-1.969,1.843,1.843,0,0,0-1.451-1.807,38.045,38.045,0,0,0-5.827-.27Zm18.714-12.677h10.124l7.405,15.576,7.357-15.576h10.109l-11.736,21.931H522.061L510.31,286.791Zm38.051,0h8.905v21.931h-8.9V286.791Zm0-8.961h8.905v6.157h-8.9V277.83Z" transform="translate(-142.679 -21.92)" fill="#034ea2" fill-rule="evenodd"/>
      <path id="Path_6" data-name="Path 6" d="M380.915,380.256h-3.4V378.43h9.021v1.826h-3.438V390.38h-2.178Z" transform="translate(-193.664 -84.8)" fill="#034ea2"/>
      <path id="Path_7" data-name="Path 7" d="M426.362,378.43v4.784h5.062V378.43H433.6v11.946h-2.178v-5.249h-5.062v5.249H424.18V378.43Z" transform="translate(-222.834 -84.8)" fill="#034ea2"/>
      <path id="Path_8" data-name="Path 8" d="M481.565,385.078h-4.5v3.51H482.1v1.788H474.88V378.43h6.948v1.792h-4.766V383.3h4.5Z" transform="translate(-254.524 -84.8)" fill="#034ea2"/>
      <path id="Path_9" data-name="Path 9" d="M546.83,378.456a18.293,18.293,0,0,1,3.187-.266,5.842,5.842,0,0,1,3.4.75,2.524,2.524,0,0,1,1.241,2.25,2.754,2.754,0,0,1-1.984,2.568v.056a3,3,0,0,1,2.407,2.94,3.2,3.2,0,0,1-1.125,2.482c-.851.727-2.25,1.1-4.451,1.1a22.11,22.11,0,0,1-2.673-.157Zm2.16,4.717h1.125c1.526,0,2.358-.709,2.358-1.721,0-1.125-.851-1.646-2.25-1.646a6.056,6.056,0,0,0-1.241.086Zm0,5.474a6.584,6.584,0,0,0,1.155.056c1.4,0,2.658-.517,2.658-1.987,0-1.4-1.222-1.969-2.73-1.969H548.99Z" transform="translate(-299.496 -84.649)" fill="#034ea2"/>
      <path id="Path_10" data-name="Path 10" d="M602.529,383.893c0,4-2.43,6.292-5.707,6.292-3.375,0-5.512-2.587-5.512-6.078,0-3.686,2.321-6.277,5.688-6.277C600.47,377.841,602.529,380.485,602.529,383.893Zm-8.917.161c0,2.445,1.222,4.376,3.315,4.376s3.3-1.969,3.3-4.466c0-2.25-1.125-4.38-3.3-4.38s-3.315,2.014-3.315,4.481Z" transform="translate(-327.298 -84.425)" fill="#034ea2"/>
      <path id="Path_11" data-name="Path 11" d="M654.709,383.893c0,4-2.426,6.292-5.707,6.292-3.375,0-5.512-2.587-5.512-6.078,0-3.686,2.321-6.277,5.688-6.277C652.654,377.841,654.709,380.485,654.709,383.893Zm-8.917.161c0,2.445,1.226,4.376,3.315,4.376s3.3-1.969,3.3-4.466c0-2.25-1.125-4.38-3.3-4.38s-3.315,2.014-3.315,4.481Z" transform="translate(-359.913 -84.425)" fill="#034ea2"/>
      <path id="Path_12" data-name="Path 12" d="M697.33,378.43h2.163v5.493h.052c.281-.457.585-.885.866-1.294l3.138-4.2h2.677l-4.125,5.088,4.38,6.858h-2.527l-3.375-5.478-1.08,1.279v4.2h-2.163Z" transform="translate(-393.565 -84.8)" fill="#034ea2"/>
      <path id="Path_13" data-name="Path 13" d="M742.856,387.695a6.022,6.022,0,0,0,2.891.75c1.38,0,2.16-.656,2.16-1.631,0-.9-.6-1.436-2.107-1.984-1.987-.709-3.243-1.755-3.243-3.476,0-1.969,1.631-3.438,4.237-3.438a6.206,6.206,0,0,1,2.85.6l-.514,1.755a5.174,5.174,0,0,0-2.392-.566c-1.38,0-1.965.724-1.965,1.432,0,.922.69,1.35,2.284,1.969,2.074.78,3.067,1.826,3.067,3.543,0,1.935-1.451,3.6-4.5,3.6a6.908,6.908,0,0,1-3.243-.75Z" transform="translate(-421.723 -84.477)" fill="#034ea2"/>
      <path id="Path_14" data-name="Path 14" d="M789.368,378.43v4.784h5.051V378.43H796.6v11.946h-2.182v-5.249h-5.051v5.249H787.19V378.43Z" transform="translate(-449.731 -84.8)" fill="#034ea2"/>
      <path id="Path_15" data-name="Path 15" d="M847.419,383.893c0,4-2.426,6.292-5.707,6.292-3.375,0-5.512-2.587-5.512-6.078,0-3.686,2.321-6.277,5.692-6.277C845.364,377.841,847.419,380.485,847.419,383.893Zm-8.913.161c0,2.445,1.222,4.376,3.315,4.376s3.3-1.969,3.3-4.466c0-2.25-1.125-4.38-3.3-4.38s-3.315,2.014-3.315,4.481Z" transform="translate(-480.365 -84.425)" fill="#034ea2"/>
      <path id="Path_16" data-name="Path 16" d="M890,378.439a19.093,19.093,0,0,1,3.333-.251,5.364,5.364,0,0,1,3.51.975,3.374,3.374,0,0,1,1.17,2.625A3.634,3.634,0,0,1,897,384.479a5.327,5.327,0,0,1-3.776,1.294,4.749,4.749,0,0,1-1.061-.086V390.2H890Zm2.164,5.546a3.561,3.561,0,0,0,1.061.109c1.631,0,2.625-.817,2.625-2.2s-.922-2.017-2.43-2.017a6.075,6.075,0,0,0-1.256.1Z" transform="translate(-513.992 -84.647)" fill="#034ea2"/>
    </g>
  </g>
</svg>
